<svg xmlns="http://www.w3.org/2000/svg" viewBox="2 2 26 26" width="1em" height="1em"><g stroke-width="0"/><g stroke-linecap="round" stroke-linejoin="round"/><path d="M18 11a1 1 0 0 1-1 1 5 5 0 0 0-5 5 1 1 0 0 1-2 0 5 5 0 0 0-5-5 1 1 0 0 1 0-2 5 5 0 0 0 5-5 1 1 0 0 1 2 0 5 5 0 0 0 5 5 1 1 0 0 1 1 1m1 13a1 1 0 0 1-1 1 2 2 0 0 0-2 2 1 1 0 0 1-2 0 2 2 0 0 0-2-2 1 1 0 0 1 0-2 2 2 0 0 0 2-2 1 1 0 0 1 2 0 2 2 0 0 0 2 2 1 1 0 0 1 1 1m9-7a1 1 0 0 1-1 1 4 4 0 0 0-4 4 1 1 0 0 1-2 0 4 4 0 0 0-4-4 1 1 0 0 1 0-2 4 4 0 0 0 4-4 1 1 0 0 1 2 0 4 4 0 0 0 4 4 1 1 0 0 1 1 1" data-name="Layer 2"/></svg>