<svg xmlns="http://www.w3.org/2000/svg" viewBox="0 0 100 125" x="0px" y="0px"><title>Wax Seals_Shapes_Sicilia</title><g data-name="Wax Seal"><g><path d="M82.13,50.73a33,33,0,1,1-33-33A33,33,0,0,1,82.13,50.73Zm9.63-9.53a12.6,12.6,0,0,1-.38,8,12.3,12.3,0,0,0-.73,3.6c0,19.33-16.58,34.55-32.6,38.1-.88.19-1.77.47-2.63.74A18.12,18.12,0,0,1,50,92.76a23.08,23.08,0,0,1-6.28-1.21c-1-.28-1.88-.54-2.77-.74A41.13,41.13,0,0,1,8.91,50.87a13.3,13.3,0,0,0-.64-3.41,10.26,10.26,0,0,1-.56-4.63,15,15,0,0,1,2.08-4.34,18.88,18.88,0,0,0,1.52-2.82C17.13,20.06,32.24,10,49.8,10a18,18,0,0,0,5.68-1.37c2.59-.92,5.28-1.87,7.71-1.07,2.91,1,6.48,3.9,9.63,6.49,1.23,1,2.39,2,3.35,2.66a27.08,27.08,0,0,0,5.31,2.69c3.13,1.32,6.37,2.69,8.07,5.36,3.68,5.8,3,9.38,2.38,12.27A8.49,8.49,0,0,0,91.76,41.2ZM55.73,13a.51.51,0,0,0,.65.31h0a10.47,10.47,0,0,1,9.34,1.17,12.23,12.23,0,0,1,2.48,2.24h0a.5.5,0,0,0,.84-.53,9.24,9.24,0,0,0-5.71-4.92,9,9,0,0,0-3.9-.34,7.09,7.09,0,0,0-3.57,1.51A.51.51,0,0,0,55.73,13ZM83.13,50.73a34,34,0,1,0-34,34A34,34,0,0,0,83.13,50.73Zm5.21-9.39a10.41,10.41,0,0,1-.48-1.89c-.11-.64-.22-1.27-.3-1.92s-.23-1.28-.33-1.93-.28-1.28-.43-1.93a17.71,17.71,0,0,0-3.85-6.9,16.49,16.49,0,0,0-6.37-4.61.51.51,0,0,0-.51.86h0a27.67,27.67,0,0,1,4.86,5.31,46.66,46.66,0,0,1,3.44,6.23l.77,1.64c.22.57.44,1.14.63,1.72s.28,1.19.42,1.78a6.47,6.47,0,0,1,0,1.84c0,.62-.2,1.23-.2,1.84a8.43,8.43,0,0,0,.05.9c0,.3,0,.6.06.91a20.6,20.6,0,0,0,.64,3.72v0a.53.53,0,0,0,1,.07,11.09,11.09,0,0,0,1-3.81A7.75,7.75,0,0,0,88.33,41.34Z"/></g></g><text x="0" y="115" fill="#000000" font-size="5px" font-weight="bold" font-family="'Helvetica Neue', Helvetica, Arial-Unicode, Arial, Sans-serif">Created by Rebecca Sicilia</text><text x="0" y="120" fill="#000000" font-size="5px" font-weight="bold" font-family="'Helvetica Neue', Helvetica, Arial-Unicode, Arial, Sans-serif">from the Noun Project</text></svg>