<svg xmlns="http://www.w3.org/2000/svg" viewBox="0 0 90 112.5" xml:space="preserve"><path d="M75.6 24.1c-2.9-1.8-5.1-4.5-6.4-7.6-3.2-7.9-12-12-20.1-9.1-3.2 1.1-6.7 1.2-9.9.2-8.2-2.5-16.9 2-19.6 10.1-1.1 3.2-3.2 6-6 7.9-7 4.9-9 14.4-4.4 21.6 1.8 2.9 2.7 6.2 2.4 9.6-.6 8.5 5.7 16 14.2 16.9 3.4.4 6.6 1.8 9.1 4.1 6.3 5.8 16 5.5 22-.5 2.4-2.4 5.5-4 8.8-4.5C74.1 71.4 80 63.7 79 55.2c-.4-3.4.3-6.8 2-9.7 4.2-7.5 1.8-16.9-5.4-21.4M44.9 74.5c-17.2 0-31.1-13.9-31.1-31.1s13.9-31.1 31.1-31.1C62 12.3 76 26.2 76 43.4S62 74.5 44.9 74.5"/><path d="M44.9 71.7C29.5 71.7 17 59.2 17 43.8s12.5-27.9 27.9-27.9 27.9 12.5 27.9 27.9-12.5 27.9-27.9 27.9m0-53.5c-14.1 0-25.6 11.5-25.6 25.6s11.5 25.6 25.6 25.6 25.6-11.5 25.6-25.6S59 18.2 44.9 18.2"/></svg>